<svg width="30" height="31" viewBox="0 0 30 31" fill="none" xmlns="http://www.w3.org/2000/svg">
<g clip-path="url(#clip0)">
<path d="M26.3379 3.58887H3.66877C1.64519 3.58887 0.000244141 5.23381 0.000244141 7.2574V22.7509C0.000244141 24.7745 1.64519 26.4194 3.66877 26.4194H26.3317C28.3553 26.4194 30.0002 24.7745 30.0002 22.7509V7.2636C30.0065 5.24002 28.3615 3.58887 26.3379 3.58887ZM28.3305 22.7509C28.3305 23.8496 27.4366 24.7434 26.3379 24.7434H3.66877C2.57008 24.7434 1.67622 23.8496 1.67622 22.7509V7.2636C1.67622 6.16491 2.57008 5.27105 3.66877 5.27105H26.3317C27.4304 5.27105 28.3243 6.16491 28.3243 7.2636V22.7509H28.3305Z" fill="white"/>
<path d="M18.9201 14.8113L26.2572 8.23156C26.5986 7.92119 26.6296 7.39357 26.3193 7.04596C26.0089 6.70455 25.4813 6.67352 25.1337 6.98388L15.0157 16.0652L13.0418 14.3023C13.0356 14.2961 13.0294 14.2899 13.0294 14.2837C12.9859 14.2402 12.9425 14.203 12.8928 14.1658L4.86054 6.97768C4.51293 6.66731 3.98531 6.69835 3.67494 7.04596C3.36458 7.39357 3.39561 7.92119 3.74322 8.23156L11.1672 14.8672L3.77426 21.7884C3.43906 22.1049 3.42044 22.6326 3.73702 22.974C3.90461 23.1478 4.12808 23.2409 4.35154 23.2409C4.55638 23.2409 4.76122 23.1664 4.92261 23.0174L12.4273 15.9969L14.4633 17.8157C14.6247 17.9584 14.8233 18.0267 15.0219 18.0267C15.2206 18.0267 15.4254 17.9522 15.5806 17.8095L17.6725 15.9348L25.1337 23.0236C25.2951 23.1788 25.5061 23.2533 25.7109 23.2533C25.9344 23.2533 26.1517 23.1664 26.3193 22.9926C26.6358 22.6574 26.6234 22.1236 26.2882 21.807L18.9201 14.8113Z" fill="white"/>
</g>
<defs>
<clipPath id="clip0">
<rect width="30" height="30" fill="white" transform="translate(0.000244141 0.00390625)"/>
</clipPath>
</defs>
</svg>
