<svg width="30" height="31" viewBox="0 0 30 31" fill="none" xmlns="http://www.w3.org/2000/svg">
<g clip-path="url(#clip0)">
<path d="M23.7097 18.5879C23.0956 17.9484 22.3547 17.6065 21.5696 17.6065C20.7908 17.6065 20.0437 17.9421 19.4042 18.5816L17.4034 20.5761C17.2387 20.4874 17.0741 20.4051 16.9158 20.3228C16.6879 20.2088 16.4726 20.1012 16.289 19.9872C14.4148 18.7969 12.7116 17.2456 11.078 15.2385C10.2865 14.238 9.75465 13.3959 9.36842 12.5411C9.88762 12.0663 10.3688 11.5724 10.8374 11.0975C11.0147 10.9202 11.1919 10.7366 11.3692 10.5593C12.6989 9.22966 12.6989 7.50744 11.3692 6.17778L9.64068 4.44923C9.4444 4.25294 9.24178 4.05033 9.05183 3.84772C8.67193 3.45515 8.27303 3.04992 7.86147 2.67002C7.2473 2.06217 6.51282 1.73926 5.74035 1.73926C4.96788 1.73926 4.22074 2.06217 3.58757 2.67002C3.58124 2.67635 3.58124 2.67635 3.57491 2.68268L1.42213 4.85446C0.61167 5.66492 0.149456 6.65266 0.0481488 7.7987C-0.103812 9.64756 0.440714 11.3698 0.858607 12.4968C1.88434 15.2638 3.41662 17.8281 5.70236 20.5761C8.47565 23.8876 11.8125 26.5026 15.6241 28.3451C17.0804 29.0352 19.0243 29.852 21.196 29.9913C21.329 29.9977 21.4683 30.004 21.5949 30.004C23.0576 30.004 24.2859 29.4785 25.2483 28.4337C25.2547 28.4211 25.2673 28.4147 25.2737 28.4021C25.6029 28.0032 25.9828 27.6423 26.3817 27.256C26.654 26.9964 26.9326 26.7242 27.2048 26.4392C27.8317 25.7871 28.1609 25.0273 28.1609 24.2485C28.1609 23.4633 27.8253 22.7099 27.1858 22.0767L23.7097 18.5879ZM25.9765 25.2552C25.9701 25.2552 25.9701 25.2615 25.9765 25.2552C25.7295 25.5211 25.4763 25.7617 25.204 26.0277C24.7924 26.4202 24.3746 26.8318 23.982 27.294C23.3425 27.9778 22.589 28.3008 21.6013 28.3008C21.5063 28.3008 21.405 28.3008 21.31 28.2944C19.4295 28.1741 17.6819 27.4396 16.3713 26.8128C12.7875 25.0779 9.64068 22.6149 7.02569 19.4934C4.86658 16.891 3.42295 14.485 2.46686 11.9016C1.87801 10.3251 1.66273 9.0967 1.75771 7.938C1.82103 7.19719 2.10595 6.58301 2.63148 6.05748L4.7906 3.89837C5.10085 3.60711 5.4301 3.44882 5.75302 3.44882C6.15191 3.44882 6.47483 3.68942 6.67744 3.89204C6.68378 3.89837 6.69011 3.9047 6.69644 3.91103C7.08267 4.27194 7.44991 4.64551 7.83615 5.04441C8.03243 5.24702 8.23504 5.44964 8.43766 5.65858L10.1662 7.38714C10.8374 8.0583 10.8374 8.67881 10.1662 9.34997C9.98259 9.53359 9.80531 9.71721 9.62169 9.89449C9.08982 10.439 8.58329 10.9456 8.03243 11.4394C8.01976 11.4521 8.0071 11.4584 8.00077 11.4711C7.45624 12.0156 7.55755 12.5475 7.67152 12.9084C7.67785 12.9274 7.68418 12.9464 7.69052 12.9654C8.14007 14.0544 8.77324 15.0802 9.73566 16.3022L9.74199 16.3085C11.4895 18.4613 13.3321 20.1392 15.3645 21.4245C15.6241 21.5892 15.8901 21.7221 16.1433 21.8488C16.3713 21.9627 16.5866 22.0704 16.7702 22.1843C16.7955 22.197 16.8208 22.216 16.8462 22.2287C17.0614 22.3363 17.2641 22.3869 17.473 22.3869C17.9985 22.3869 18.3278 22.0577 18.4354 21.9501L20.6009 19.7846C20.8161 19.5693 21.1581 19.3097 21.5569 19.3097C21.9495 19.3097 22.2724 19.5567 22.4687 19.772C22.475 19.7783 22.475 19.7783 22.4814 19.7846L25.9701 23.2734C26.6223 23.9192 26.6223 24.584 25.9765 25.2552Z" fill="white"/>
<path d="M16.2129 7.14001C17.8718 7.41861 19.3787 8.20374 20.5817 9.40676C21.7848 10.6098 22.5636 12.1167 22.8485 13.7756C22.9181 14.1935 23.279 14.4848 23.6906 14.4848C23.7413 14.4848 23.7856 14.4785 23.8362 14.4721C24.3048 14.3961 24.615 13.9529 24.539 13.4844C24.1971 11.4772 23.2474 9.64737 21.7974 8.19741C20.3475 6.74745 18.5176 5.79769 16.5105 5.45578C16.0419 5.3798 15.605 5.69005 15.5227 6.15227C15.4404 6.61448 15.7443 7.06403 16.2129 7.14001Z" fill="white"/>
<path d="M29.9654 13.2375C29.4019 9.93239 27.8443 6.92483 25.4509 4.53144C23.0575 2.13806 20.05 0.58046 16.7448 0.0169378C16.2826 -0.0653743 15.8457 0.251211 15.7634 0.713425C15.6874 1.18197 15.9977 1.61886 16.4662 1.70117C19.4168 2.20138 22.1078 3.60068 24.2479 5.73447C26.388 7.87458 27.781 10.5656 28.2812 13.5161C28.3508 13.934 28.7117 14.2253 29.1233 14.2253C29.1739 14.2253 29.2183 14.219 29.2689 14.2126C29.7311 14.143 30.0477 13.6998 29.9654 13.2375Z" fill="white"/>
</g>
<defs>
<clipPath id="clip0">
<rect width="30" height="30" fill="white" transform="translate(0.000244141 0.00390625)"/>
</clipPath>
</defs>
</svg>
